# xmcd
#
# Track frame offsets: 
#        150
#        11972
#        24315
#        37507
#        48692
#        60782
#        72425
#        84337
#        97607
#        109570
#        121332
#        134300
#        145237
#        155745
#        170370
#        183140
#        195772
#        206672
#        218120
#        230167
#        240547
#        251730
#        263002
#        274525
#        285000
#        295795
#        306935
#        317055
#
# Disc length: 4373 seconds
#
# Revision: 1
# Processed by: cddbd v1.5.2PL0 Copyright (c) Steve Scherf et al.
# Submitted via: ExactAudioCopyFreeDBPlugin 1.0
#
DISCID=7711131c
DTITLE=Mac Wiseman - 'Tis Sweet To Be Remembered
DYEAR=2003
DGENRE=Bluegrass
TTITLE0=Little White Church
TTITLE1=I'm A Stranger
TTITLE2=Tis Sweet To Be Remembered
TTITLE3=Are You Coming Back To me
TTITLE4=I Still Write Your Name In the Sand
TTITLE5=Four Walls Around Me
TTITLE6=Georgia Waltz
TTITLE7=Dreaming Of A Little Cabin
TTITLE8=You're The Girl Of My Dreams
TTITLE9=Six More Miles
TTITLE10=I Wonder How The Old Folks Are At Home
TTITLE11=Going To See My Baby
TTITLE12=It's Goodbye And So Long To You
TTITLE13=Fire In My Heart
TTITLE14=Waiting For The Boys
TTITLE15=(I'd Rather Live) By The Side Of The Road
TTITLE16=Shackles And Chains
TTITLE17=Goin' Like Wildfire
TTITLE18=You're Sweeter Than Honey
TTITLE19=Don't Let Your Sweet Love Die
TTITLE20=Crazy Blues
TTITLE21=You'd Better Wake Up
TTITLE22=When I Get The Money Made
TTITLE23=Rainbow In The Valley
TTITLE24=I'd Rather Die Young (Than Grow Old Without You)
TTITLE25=Remembering
TTITLE26=My Little Home In Tennessee
TTITLE27=Let Me Borrow Your Heart For Just Tonight
EXTD=
EXTT0=
EXTT1=
EXTT2=
EXTT3=
EXTT4=
EXTT5=
EXTT6=
EXTT7=
EXTT8=
EXTT9=
EXTT10=
EXTT11=
EXTT12=
EXTT13=
EXTT14=
EXTT15=
EXTT16=
EXTT17=
EXTT18=
EXTT19=
EXTT20=
EXTT21=
EXTT22=
EXTT23=
EXTT24=
EXTT25=
EXTT26=
EXTT27=
PLAYORDER=
